<svg xmlns="http://www.w3.org/2000/svg" width="2250" height="2250" viewBox="0 0 2250 2250"><g transform="translate(-966 986)"><g transform="translate(966 -986)" fill="#06f" stroke="#005ce6" stroke-width="34"><circle cx="1125" cy="1125" r="1125" stroke="none"/><circle cx="1125" cy="1125" r="1108" fill="none"/></g><path d="M703.043,1888.7s164.914-71.558,204.1-279.285c0,0,164.1,48,321.6,4.863,0,0,.488,230.867,180.8,274.422Z" transform="translate(1030.707 -921.615)" fill="#005ce6" stroke="#fff" stroke-linecap="round" stroke-linejoin="round" stroke-width="34.923"/><path d="M1547.68,1186.617c0,268.969-218.043,442.918-487.024,442.918h0c-268.976,0-487.019-173.949-487.019-442.918V864.566C573.637,595.594,791.68,415,1060.656,415h0c268.981,0,487.024,180.59,487.024,449.562Z" transform="translate(1030.707 -921.615)" fill="#005ce6" stroke="#fff" stroke-linecap="round" stroke-linejoin="round" stroke-width="34.923"/><path d="M573.637,935.3c-2.129-.117-4.243-.324-6.422-.324a114.926,114.926,0,0,0,0,229.851c2.179,0,4.293-.207,6.422-.316Z" transform="translate(1030.707 -921.615)" fill="#005ce6" stroke="#fff" stroke-linecap="round" stroke-linejoin="round" stroke-width="34.923"/><path d="M1547.68,935.3c2.136-.117,4.246-.324,6.422-.324a114.926,114.926,0,1,1,0,229.851c-2.176,0-4.286-.207-6.422-.316Z" transform="translate(1030.707 -921.615)" fill="#005ce6" stroke="#fff" stroke-linecap="round" stroke-linejoin="round" stroke-width="34.923"/><path d="M573.637,1164.512s251.793-150.278,480.828-150.278c108.34,0,357.168,38.2,499.637,150.594,0,0,0,471.492-493.055,471.492C1061.047,1636.32,557.707,1636.32,573.637,1164.512Z" transform="translate(1030.707 -921.615)" fill="#005ce6" stroke="#fff" stroke-linecap="round" stroke-linejoin="round" stroke-width="34.923"/><path d="M952.09,1201.4s97.5-44.109,232.133,0" transform="translate(1030.707 -921.615)" fill="#005ce6" stroke="#fff" stroke-linecap="round" stroke-linejoin="round" stroke-width="34.923"/><line x2="427.121" transform="translate(1888.133 389.573)" stroke-width="34.923" stroke="#fff" stroke-linecap="round" stroke-linejoin="round" fill="#fff"/><line x2="427.121" transform="translate(1888.133 491.44)" stroke-width="34.923" stroke="#fff" stroke-linecap="round" stroke-linejoin="round" fill="#fff"/><path d="M573.637,892.191S877.148,933.977,1137.586,676.3c0,0,179.035,236.777,410.094,234.457,0,0,138.2-636.821-418.922-598.133C1019.551,320.211,947.7,202.75,696.988,239.9c0,0,18.571,62.675,62.672,83.566,0,0-186.023,24.762-246.695,215.223,0,0,105.867-51.961,131.406-36.629C644.371,502.055,545.465,615.949,573.637,892.191Z" transform="translate(1030.707 -921.615)" fill="#005ce6" stroke="#fff" stroke-linecap="round" stroke-linejoin="round" stroke-width="34.923"/><path d="M660.48,1193s207.18-123.649,395.618-123.649c89.144,0,293.867,31.434,411.086,123.907,0,0,0,387.937-405.672,387.937C1061.512,1581.2,647.379,1581.2,660.48,1193Z" transform="translate(1030.707 -921.615)" fill="none" stroke="#fff" stroke-linecap="round" stroke-linejoin="round" stroke-width="18.348" stroke-dasharray="9.174 27.523"/></g></svg>